<?xml version="1.0" encoding="UTF-8" standalone="no"?><!-- Generator: Gravit.io --><svg xmlns="http://www.w3.org/2000/svg" xmlns:xlink="http://www.w3.org/1999/xlink" style="isolation:isolate" viewBox="0 0 500 500" width="500pt" height="500pt"><defs><clipPath id="_clipPath_567twipL6NynfcCxLvqdSAtdUIJBg01B"><rect width="500" height="500"/></clipPath></defs><g clip-path="url(#_clipPath_567twipL6NynfcCxLvqdSAtdUIJBg01B)"><path d=" M 188 71 L 452 71 L 452 99 L 188 99 L 188 71 L 188 71 L 188 71 L 188 71 L 188 71 L 188 71 L 188 71 Z  M 188 152.75 L 452 152.75 L 452 180.75 L 188 180.75 L 188 152.75 L 188 152.75 L 188 152.75 L 188 152.75 L 188 152.75 L 188 152.75 Z  M 188 234.5 L 452 234.5 L 452 262.5 L 188 262.5 L 188 234.5 L 188 234.5 L 188 234.5 L 188 234.5 L 188 234.5 Z  M 188 316.25 L 452 316.25 L 452 344.25 L 188 344.25 L 188 316.25 L 188 316.25 L 188 316.25 L 188 316.25 Z  M 188 398 L 452 398 L 452 426 L 188 426 L 188 398 L 188 398 L 188 398 Z  M 128 426 L 128 162 L 156 162 L 156 426 L 128 426 L 128 426 Z  M 92.55 15 L 407.45 15 C 450.251 15 485 49.749 485 92.55 L 485 407.45 C 485 450.251 450.251 485 407.45 485 L 92.55 485 C 49.749 485 15 450.251 15 407.45 L 15 92.55 C 15 49.749 49.749 15 92.55 15 L 92.55 15 L 92.55 15 L 92.55 15 L 92.55 15 L 92.55 15 L 92.55 15 Z  M 61 335 L 61 71 L 89 71 L 89 335 L 61 335 Z " fill-rule="evenodd" fill="rgb(255,255,255)"/></g></svg>