<?xml version="1.0" encoding="utf-8"?>
<!-- Generator: Adobe Illustrator 25.0.0, SVG Export Plug-In . SVG Version: 6.00 Build 0)  -->
<svg version="1.1" id="Layer_1" xmlns="http://www.w3.org/2000/svg" xmlns:xlink="http://www.w3.org/1999/xlink" x="0px" y="0px"
	 viewBox="0 0 500 500" style="enable-background:new 0 0 500 500;" xml:space="preserve">
<style type="text/css">
	.st0{fill:#FFFFFF;}
</style>
<g>
	<g>
		<path class="st0" d="M47.9,409.8V124.2c0-11.2,9-20.2,20.2-20.2h210.8h42.4l-40.2,40.2h-2.1H88.2v245.4h245.4v-44v-60.2l40.2-40.2
			v100.4v64.2c0,11.1-9,20.2-20.2,20.2H68.1C57,429.9,47.9,420.9,47.9,409.8z M223.2,255.2l-43-43c-12.1-12.1-31.7-12.1-43.7,0
			c-5.9,5.9-9.1,13.6-9.1,21.9s3.2,16,9.1,21.8l64.8,64.8c12.1,12.1,31.7,12.1,43.7,0L443,122.8c5.9-5.9,9.1-13.6,9.1-21.8
			c0-8.3-3.2-16-9.1-21.9c-12.1-12.1-31.7-12.1-43.7,0L223.2,255.2z"/>
	</g>
</g>
</svg>
